<svg xmlns="http://www.w3.org/2000/svg" viewBox="0 0 548 548"><defs><style>.cls-1{fill:#9facff;}.cls-2{fill:#ffdc73;}.cls-3{fill:#ffbf00;}.cls-4{fill:#8bcece;}.cls-5,.cls-6{fill:none;stroke-miterlimit:10;stroke-width:20px;}.cls-5{stroke:#ff7bac;}.cls-6{stroke:#fff;}</style></defs><title>justins vector design thingy</title><g id="Layer_1" data-name="Layer 1"><circle class="cls-1" cx="274" cy="274" r="274"/></g><g id="Layer_3" data-name="Layer 3"><path class="cls-2" d="M492.53,334.42l-.06.07L484,342.55l-10.66,10.19h0l-.36.34V539c7.17,7.69,14.65,15.16,22.18,22.6,18.92,16,35.91,34.2,53.95,51.24a4.52,4.52,0,0,1,5.72.83c.94,1,1.86,2,2.75,3H572V334.42Z" transform="translate(-420 -110)"/><path class="cls-2" d="M837.35,381.84l-17.64,17V607H846.3c4.86-3.62,9.78-7.13,14.89-10.4q16.39-16.46,31.58-34.06a4.16,4.16,0,0,1,5.18-1.19c3.76-4.52,7.62-9,11.53-13.37,1.75-2.67,3.61-5.27,5.52-7.84V381.84Z" transform="translate(-420 -110)"/><path class="cls-2" d="M765.89,644.6c3.35-1.82,6.8-3.44,10.22-5.13,3-1.58,5.91-3.18,8.82-4.86a4.71,4.71,0,0,1,3.81-.53l3.72-2a4.89,4.89,0,0,1,4.45-.1q2.54-.94,5.09-1.85V272.9H722.25L703.59,292V649h51.32Q760.42,646.86,765.89,644.6Z" transform="translate(-420 -110)"/><path class="cls-2" d="M606.92,188l-18.63,19V632.56q6.56,1.82,13.08,3.68a5.13,5.13,0,0,1,1.52.38l.66.26c6,1.74,11.89,3.57,17.76,5.6a4.93,4.93,0,0,1,3.33,3.59q2.6,1.38,5.11,2.93H685V188Z" transform="translate(-420 -110)"/></g><g id="Layer_4" data-name="Layer 4"><path class="cls-3" d="M549.29,353.87V612.71a4.51,4.51,0,0,1,5.56.91c1,1,2,2.13,3,3.22H572V334.1Z" transform="translate(-420 -110)"/><polygon class="cls-3" points="265 539 244.21 539 244.21 97.17 265 78 265 539"/><path class="cls-3" d="M784.93,634.61a4.71,4.71,0,0,1,3.81-.53l3.72-2a4.89,4.89,0,0,1,4.45-.1q2.54-.94,5.09-1.85V272.9l-22.57,19.17V637.68C781.27,636.67,783.11,635.66,784.93,634.61Z" transform="translate(-420 -110)"/><path class="cls-3" d="M897.94,561.36c3.76-4.52,7.63-9,11.54-13.38,1.75-2.67,3.61-5.27,5.52-7.84V381.84L895.22,399V561A4.26,4.26,0,0,1,897.94,561.36Z" transform="translate(-420 -110)"/></g><g id="Layer_2" data-name="Layer 2"><path class="cls-4" d="M495.18,561.55c18.92,16,35.91,34.2,53.95,51.24l.16-.08V353.87H473V539C480.17,546.64,487.65,554.11,495.18,561.55Z" transform="translate(-420 -110)"/><path class="cls-4" d="M819.71,399V607H846.3c4.86-3.62,9.78-7.13,14.89-10.4q16.39-16.46,31.58-34.06a4.53,4.53,0,0,1,2.45-1.54V399Z" transform="translate(-420 -110)"/><path class="cls-4" d="M765.89,644.6c3.35-1.82,6.8-3.44,10.22-5.13l3.32-1.79V292.07H703.59V649h51.32Q760.42,646.86,765.89,644.6Z" transform="translate(-420 -110)"/><path class="cls-4" d="M588.29,207.17V632.56q6.56,1.82,13.08,3.68a5.13,5.13,0,0,1,1.52.38l.66.26c6,1.74,11.89,3.57,17.76,5.6a4.93,4.93,0,0,1,3.33,3.59q2.6,1.38,5.11,2.93h34.46V207.17Z" transform="translate(-420 -110)"/></g><g id="Layer_6" data-name="Layer 6"><path class="cls-5" d="M486.51,553.21c7.88-22.31,14.68-45,23.44-67,8.67-21.72,19.41-42.81,34.48-60.85,7.27-8.69,17.44-18.3,29.56-18.5,11.31-.19,19.44,8.14,26.17,16.12,11.34,13.44,24.53,31,43.56,32.63,21,1.76,37-20.22,47.09-35.87,11.76-18.16,21.66-37.16,35.28-54.09,6.27-7.79,13.53-15.21,23-19,9.72-3.93,20.57-3.44,30.25.37,18.94,7.45,33.19,25.51,45.48,41,16.12,20.3,30,42.46,42.45,65.13s23.46,45.75,34.18,69.12q3.93,8.58,7.82,17.18" transform="translate(-420 -110)"/></g><g id="Layer_5" data-name="Layer 5"><path class="cls-6" d="M472.7,530.85c7.83-23.35,16-46.64,26.87-68.79a225.91,225.91,0,0,1,17.87-30.6c6.25-8.91,13.62-17.65,23.88-22a28.46,28.46,0,0,1,29.16,3.92c7.84,6.06,13.42,14.71,19.9,22.09,6.93,7.89,14.83,15.08,25,18.36s20.66,2.14,29.4-4.12c16-11.5,24.76-29.78,34.77-46.17,5.92-9.68,12.48-19.09,19-28.38,6.19-8.86,11.63-18,20.78-24.2,19-12.81,41.36-5.19,58,7.77,17.61,13.66,30.5,32.69,43.12,50.78,13.9,19.93,25.63,41.32,36.76,62.9,11.45,22.19,21.62,45,31.81,67.81q3.72,8.34,7.39,16.69" transform="translate(-420 -110)"/></g><g id="Layer_7" data-name="Layer 7"><path class="cls-1" d="M694,130A253.17,253.17,0,1,1,595.14,150,252.36,252.36,0,0,1,694,130m0-20c-151.33,0-274,122.67-274,274S542.67,658,694,658,968,535.33,968,384,845.33,110,694,110Z" transform="translate(-420 -110)"/></g></svg>